<?xml version="1.0" standalone="no"?>
<!DOCTYPE svg PUBLIC "-//W3C//DTD SVG 20010904//EN"
 "http://www.w3.org/TR/2001/REC-SVG-20010904/DTD/svg10.dtd">
<svg version="1.0" xmlns="http://www.w3.org/2000/svg"
 width="500.000000pt" height="500.000000pt" viewBox="100 100 300.000000 300.000000"
 preserveAspectRatio="xMidYMid meet">

<g transform="translate(0.000000,500.000000) scale(0.100000,-0.100000)"
fill="#fd7e14" stroke="none">
<path d="M2580 2910 c-26 -40 -45 -57 -86 -75 -57 -25 -70 -47 -54 -90 15 -40
-8 -70 -77 -100 l-56 -25 6 -48 c4 -37 1 -54 -15 -81 l-21 -34 24 -18 c25 -19
1284 -639 1297 -639 4 0 17 16 30 36 19 28 26 33 37 24 22 -18 31 -6 55 72 25
82 58 137 70 117 16 -25 37 1 58 73 13 41 37 96 56 123 40 61 50 114 36 203
-22 140 -114 275 -253 369 -66 44 -82 51 -143 56 -38 4 -242 23 -454 42 -212
19 -406 37 -431 41 l-46 5 -33 -51z m689 -309 c657 -323 626 -304 589 -354
-12 -16 -58 4 -638 289 -344 169 -627 308 -628 310 -9 6 34 64 45 62 6 -2 291
-140 632 -307z m-64 263 l390 -36 53 -31 c113 -68 217 -199 247 -312 18 -71
20 -145 3 -145 -14 0 -1129 548 -1143 561 -7 7 1 9 25 5 19 -3 211 -22 425
-42z m-19 -354 c346 -170 632 -311 636 -312 6 -3 -9 -74 -18 -87 -2 -2 -15 6
-30 18 -37 29 -116 51 -183 51 -73 0 -136 36 -218 124 -76 81 -116 100 -256
120 -128 17 -157 33 -228 122 -61 77 -88 92 -248 137 -113 32 -171 62 -171 89
0 6 67 43 86 48 0 0 284 -139 630 -310z m-606 152 c41 -13 105 -33 142 -44 54
-16 75 -29 104 -62 120 -137 145 -152 285 -172 131 -18 162 -33 240 -113 94
-97 138 -121 246 -131 91 -9 136 -21 148 -40 8 -12 -20 -60 -35 -60 -12 0
-1232 598 -1244 610 -11 11 12 42 28 38 6 -2 45 -14 86 -26z m483 -352 c347
-171 632 -312 634 -313 1 -2 -3 -19 -9 -40 l-11 -36 -29 21 c-41 29 -111 48
-176 48 -76 0 -131 30 -218 117 -83 85 -131 110 -246 124 -133 18 -158 30
-240 121 -40 44 -84 86 -99 94 -15 7 -78 27 -140 45 -129 35 -164 51 -179 79
-9 16 -6 22 17 34 16 8 36 15 46 16 10 0 303 -140 650 -310z m-656 176 c21 -8
76 -25 123 -37 114 -29 153 -51 189 -102 38 -55 94 -105 140 -124 19 -8 78
-21 131 -28 53 -8 109 -19 125 -25 16 -6 66 -46 111 -90 105 -100 144 -120
253 -130 48 -4 101 -14 119 -24 l33 -17 -21 -29 c-12 -17 -25 -30 -29 -30 -8
0 -1242 607 -1249 615 -6 6 18 35 29 35 5 0 26 -6 46 -14z"/>
<path d="M3160 2755 c0 -8 7 -15 15 -15 8 0 15 7 15 15 0 8 -7 15 -15 15 -8 0
-15 -7 -15 -15z"/>
<path d="M3363 2694 c-7 -19 2 -28 22 -21 19 8 19 23 0 31 -9 3 -18 -1 -22
-10z"/>
<path d="M3546 2682 c-8 -13 11 -35 23 -28 16 10 14 36 -3 36 -8 0 -17 -4 -20
-8z"/>
<path d="M3626 2545 c-3 -9 1 -18 10 -22 19 -7 28 2 21 22 -8 19 -23 19 -31 0z"/>
<path d="M1200 2785 c0 -8 1 -15 3 -15 1 0 38 -4 82 -10 44 -5 244 -23 445
-40 353 -29 403 -29 374 0 -11 11 -85 19 -503 55 -350 30 -401 31 -401 10z"/>
<path d="M1915 2465 c-66 -12 -154 -32 -195 -43 -41 -12 -158 -35 -260 -53
-215 -36 -410 -76 -418 -84 -12 -12 23 -25 53 -20 208 35 612 112 730 139 83
20 178 41 213 48 35 7 64 18 65 23 3 17 -64 14 -188 -10z"/>
<path d="M2075 2332 c-38 -22 -133 -81 -210 -132 -77 -52 -203 -132 -280 -178
-219 -132 -287 -184 -268 -203 9 -9 34 2 105 48 51 33 154 95 228 138 74 43
203 123 285 179 83 56 171 113 198 126 29 15 46 31 45 40 -5 26 -31 21 -103
-18z"/>
</g>
</svg>
